<svg xmlns="http://www.w3.org/2000/svg" viewBox="0 0 64 64" role="img" aria-label="hush-pointer favicon">
  <defs>
    <linearGradient id="bg" x1="0" y1="0" x2="1" y2="1">
      <stop offset="0%" stop-color="#6f87aa" />
      <stop offset="100%" stop-color="#5878a6" />
    </linearGradient>
    <linearGradient id="mark" x1="0" y1="0" x2="1" y2="1">
      <stop offset="0%" stop-color="#ffffff" />
      <stop offset="100%" stop-color="#e8f0fb" />
    </linearGradient>
    <linearGradient id="shadow" x1="0" y1="0" x2="1" y2="1">
      <stop offset="0%" stop-color="#2f4f7f" />
      <stop offset="100%" stop-color="#26466f" />
    </linearGradient>
  </defs>
  <circle cx="32" cy="32" r="31.5" fill="url(#bg)" />
  <circle cx="32" cy="32" r="20.5" fill="#3f5f8f" opacity="0.32" />
  <path d="M19 15.5v33.8c0 1.8 2 2.8 3.4 1.7l8.8-7.1 6.3 11.1a1.9 1.9 0 0 0 2.7.7l3.7-2.2c.9-.5 1.2-1.7.7-2.6l-6.4-11.2 12-3.5c1.9-.6 2.2-3.2.4-4.1L21.8 14.2c-1.3-.8-2.8.1-2.8 1.3z" fill="url(#shadow)" opacity=".42"/>
  <path d="M18 13.5v33.8c0 1.8 2 2.8 3.4 1.7l8.8-7.1 6.3 11.1a1.9 1.9 0 0 0 2.7.7l3.7-2.2c.9-.5 1.2-1.7.7-2.6l-6.4-11.2 12-3.5c1.9-.6 2.2-3.2.4-4.1L20.8 12.2c-1.3-.8-2.8.1-2.8 1.3z" fill="url(#mark)" />
</svg>
