<svg xmlns="http://www.w3.org/2000/svg" viewBox="0 0 64 64" role="img" aria-label="hush-pointer favicon">
  <defs>
    <linearGradient id="bg" x1="0" y1="0" x2="1" y2="1">
      <stop offset="0%" stop-color="#5878a6" />
      <stop offset="100%" stop-color="#e48b9e" />
    </linearGradient>
    <linearGradient id="mark" x1="0" y1="0" x2="1" y2="1">
      <stop offset="0%" stop-color="#f7fbff" />
      <stop offset="100%" stop-color="#ffeef2" />
    </linearGradient>
    <linearGradient id="shadow" x1="0" y1="0" x2="1" y2="1">
      <stop offset="0%" stop-color="#355d8e" />
      <stop offset="100%" stop-color="#b97082" />
    </linearGradient>
  </defs>
  <circle cx="32" cy="32" r="31.5" fill="url(#bg)" />
  <circle cx="32" cy="32" r="20.5" fill="#5f6f99" opacity="0.34" />
  <path d="M20.5 14.8v35c0 1.3 1.5 2.2 2.7 1.5l8.1-5.2 5.2 11.2c.5 1 1.7 1.4 2.7.9l3.1-1.6c1-.5 1.4-1.7.9-2.7l-5.2-11.1 12.8-3.2c1.5-.4 1.9-2.4.7-3.4L23.4 13.2c-1.2-.9-2.9 0-2.9 1.6z" fill="url(#shadow)" opacity=".42"/>
  <path d="M19.5 13v35c0 1.3 1.5 2.2 2.7 1.5l8.1-5.2 5.2 11.2c.5 1 1.7 1.4 2.7.9l3.1-1.6c1-.5 1.4-1.7.9-2.7L37 41l12.8-3.2c1.5-.4 1.9-2.4.7-3.4L22.4 11.4c-1.2-.9-2.9 0-2.9 1.6z" fill="url(#mark)" />
</svg>
